PathFileType	4	(X/Y/Z)	Walk1.trc
DataRate	CameraRate	NumFrames	NumMarkers	Units	OrigDataRate	OrigDataStartFrame	OrigNumFrames
200.000000	200.000000	6	59	mm	200.000000	286	554
Frame#	Times		LBHD		C7		T10		RBack		LPSI		RPSI		LTB1		RCAR		LMT5		LLFC		LFHD		RWRR		LTH4		LUA1		RBHD		RElbowM		LElbowM		RUA1		RFA1		CLAV		RTH3		RACR1		LACR1		RWRU		RTH2		LWRU		LCAR		RFHD		RTB1		LFA1		RElbow		RTB2		RCAL		RTH4		RTB4		RToe		RTB3		RMT1		RLFC		RTH1		RMT5		LElbow		LTB4		RLMAL		STRN		LASI		LTB3		LWRR		LTH3		RASI		LLMAL		LTH1		LMT1		RMMAL		LCAL		LTH2		LTB2		LMMAL		LToe
			X1	Y1	Z1	X2	Y2	Z2	X3	Y3	Z3	X4	Y4	Z4	X5	Y5	Z5	X6	Y6	Z6	X7	Y7	Z7	X8	Y8	Z8	X9	Y9	Z9	X10	Y10	Z10	X11	Y11	Z11	X12	Y12	Z12	X13	Y13	Z13	X14	Y14	Z14	X15	Y15	Z15	X16	Y16	Z16	X17	Y17	Z17	X18	Y18	Z18	X19	Y19	Z19	X20	Y20	Z20	X21	Y21	Z21	X22	Y22	Z22	X23	Y23	Z23	X24	Y24	Z24	X25	Y25	Z25	X26	Y26	Z26	X27	Y27	Z27	X28	Y28	Z28	X29	Y29	Z29	X30	Y30	Z30	X31	Y31	Z31	X32	Y32	Z32	X33	Y33	Z33	X34	Y34	Z34	X35	Y35	Z35	X36	Y36	Z36	X37	Y37	Z37	X38	Y38	Z38	X39	Y39	Z39	X40	Y40	Z40	X41	Y41	Z41	X42	Y42	Z42	X43	Y43	Z43	X44	Y44	Z44	X45	Y45	Z45	X46	Y46	Z46	X47	Y47	Z47	X48	Y48	Z48	X49	Y49	Z49	X50	Y50	Z50	X51	Y51	Z51	X52	Y52	Z52	X53	Y53	Z53	X54	Y54	Z54	X55	Y55	Z55	X56	Y56	Z56	X57	Y57	Z57	X58	Y58	Z58	X59	Y59	Z59

286	1.43	-389.59	1497.9	-78.168	-415	1362.8	-9.0104	-441.08	1092.4	-21.879	-428.09	1261.2	121.64	-456.82	901.86	-73.686	-472.87	906.88	25.591	-219.9	349.78	-50.09	-195.54	748.55	264.58	-172.25	35.744	-82.557	-251.64	456.25	-136.45	-215.99	1496.1	-66.114	-185.41	794	219.87	-250.95	659.05	-171.91	-362.76	1143.4	-264.55	-383.86	1505.8	45.022	-351.28	962.2	173.38	-436.99	1000	-210.01	-300.14	1146.3	212.31	-288.88	876.81	256.55	-289.69	1285.3	-12.524	-348.62	551.26	175.69	-329.33	1303.7	140.01	-344.26	1307.5	-176.01	-250.89	771.58	246.18	-275.07	651.02	165.35	-375.46	786.2	-318.48	-332.25	743.28	-334.23	-206.45	1505.5	9.8064	-383.62	331.35	90.243	-395.88	904.47	-307.75	-307.94	1002.5	249.14	-492.6	308.52	139.98	-672.16	235.38	50.101	-350.62	646.22	184.85	-461.46	283.16	77.214	-585.57	50.23	53.463	-531.62	223.3	64.101	-588.44	101.38	38.339	-339.57	450.59	171.27	-350.15	734.78	199.61	-626.19	108.67	82.446	-411.47	1029	-279.47	-226.68	258.19	-45.019	-630.55	201.68	90.77	-225.01	1182.6	-23.037	-249.23	869.05	-167.42	-219.88	167.32	-35.305	-310.59	778.73	-284.15	-238.6	568.31	-146.45	-257.05	878.45	124.4	-259.31	65.878	-80.685	-268.64	747.86	-198.64	-152.14	49.297	-25.362	-602.61	198.49	16.722	-305.38	32.065	-43.236	-194.21	682.81	-131.1	-244.34	253.85	-112.99	-246.84	71.596	-1.1682	-96.437	25.225	-32.864
287	1.435	-383.51	1498.3	-78.365	-408.93	1363.6	-9.2738	-435.04	1093.3	-22.326	-422.41	1261.6	121.15	-451.09	902.63	-73.787	-467.49	907.6	25.088	-218.65	349.59	-50.562	-193.24	748.31	265.45	-172.13	35.681	-82.378	-249.97	456.17	-136.51	-209.99	1497.1	-66.156	-182.41	794.09	220.55	-247.34	659.26	-172.05	-356.13	1144.3	-265.05	-378.27	1506.3	44.754	-347.56	963.01	173.48	-431.13	1001	-211.16	-295.03	1146.9	212.49	-285.82	876.99	256.68	-283.61	1286.1	-12.622	-338.81	551.9	175.29	-323.76	1304	139.81	-337.92	1308.3	-176.24	-248.38	771.83	246.59	-266.29	653.03	165.45	-368.66	786.87	-318.61	-325.46	743.6	-334.42	-200.43	1506.4	9.9268	-371.6	332.5	90.729	-388.96	905.31	-308.06	-303.9	1002.6	249.07	-480.91	310.16	140.19	-660.42	236.07	49.81	-341.66	647.15	185.13	-449.55	284.11	77.913	-571.39	51.201	58.679	-519.5	224.73	64.218	-574.42	103.23	42.381	-328.23	451.8	171.51	-342.28	735.55	199.62	-612.73	111.41	85.701	-404.87	1029.9	-280.2	-226.02	258.16	-45.486	-618.55	203.61	90.842	-219.19	1182.9	-23.035	-243.73	868.68	-167.51	-219.25	167.29	-35.548	-303.91	779.66	-284.25	-235.94	568.2	-146.66	-251.73	879.17	123.94	-259.31	65.861	-80.604	-264.48	748.2	-198.95	-152.16	49.234	-25.312	-590.35	199.77	16.878	-305.4	32.087	-43.143	-190.52	682.42	-131.53	-244.11	253.78	-113.1	-246.72	71.642	-1.0815	-96.311	24.887	-32.658
288	1.44	-377.51	1499.1	-78.446	-402.88	1364.2	-9.4345	-429.16	1094.1	-22.809	-416.77	1262.2	120.84	-445.49	903.44	-74.016	-461.82	908.27	24.899	-217.33	349.5	-50.933	-190.64	747.96	265.93	-172.09	35.659	-82.271	-248.22	456.02	-136.58	-204.02	1498	-66.095	-179.03	793.72	221.5	-243.81	659.37	-172.25	-349.49	1145	-265.46	-372.06	1507	44.638	-343.71	963.36	173.42	-425.03	1001.7	-212.21	-290.21	1146.9	212.47	-282.41	877.14	256.84	-277.75	1286.7	-12.599	-329.57	552.76	174.86	-318.26	1304	138.71	-331.23	1308.8	-176.21	-245.6	771.84	246.85	-257.58	654.82	165.78	-361.83	787.7	-318.91	-318.39	744.3	-334.41	-194.85	1507.2	10.16	-359.57	333.49	91.385	-382.1	906.02	-308.73	-299.88	1003	249.15	-468.87	311.44	140.47	-648.42	236.38	49.321	-333.09	647.98	185.5	-437.59	284.16	79	-556.51	52.416	63.735	-507.59	225.32	64.803	-560.31	104.71	45.767	-316.85	452.96	171.84	-334.62	736.46	199.84	-599.12	113.74	88.87	-398.12	1030.5	-280.86	-225.25	258.04	-45.908	-605.86	204.84	91.223	-213.29	1183.2	-22.865	-238.24	868.68	-167.4	-218.86	167.13	-35.791	-296.87	780.41	-284.51	-233.17	568.19	-146.63	-246.11	879.84	123.8	-259.26	65.84	-80.584	-260.06	748.51	-199.2	-152.09	49.121	-25.203	-577.66	200.76	17.028	-305.38	32.094	-43.088	-187.01	682.03	-131.52	-243.59	253.74	-113.26	-246.55	71.522	-1.1482	-96.044	24.464	-32.494
289	1.445	-371.44	1499.7	-78.517	-396.69	1364.8	-9.7423	-423.4	1094.5	-23.367	-410.8	1262.8	120.52	-439.9	904.21	-74.235	-456.04	909.13	24.634	-216.19	349.36	-51.23	-188.21	747.78	266.9	-172.16	35.604	-82.457	-246.92	455.99	-136.84	-198.13	1498.9	-66.012	-175.89	793.47	222.7	-240.55	659.19	-172.24	-342.6	1145.5	-265.9	-366.06	1507.4	44.592	-339.7	963.72	173.69	-419.13	1002.2	-213.27	-285.61	1147.2	212.47	-278.76	877.51	257.31	-271.53	1287.1	-12.667	-320.2	553.39	174.24	-312.5	1304.2	138.15	-325.09	1309.5	-176.49	-242.69	771.6	247.39	-249.35	656.18	166.2	-354.89	788.27	-319.14	-311.51	744.85	-334.46	-188.64	1507.9	10.608	-347.33	334.51	91.756	-375.27	906.74	-309.4	-296.17	1003.5	249.79	-456.65	312.88	140.63	-636.3	236.26	48.935	-324.61	648.73	185.66	-425.77	284.15	80.572	-541.37	53.773	68.478	-495.1	225.71	65.585	-545.91	106.05	49.544	-305.27	454.5	172.48	-327.14	737.26	200.19	-584.73	115.57	91.856	-391.66	1031.3	-281.67	-224.25	257.81	-46.102	-593.03	205.54	91.699	-207.22	1183.6	-23.018	-232.65	868.52	-167.61	-218.56	166.98	-35.928	-289.71	781.24	-284.84	-230.54	568.19	-146.82	-240.38	880.7	123.58	-259.19	65.81	-80.547	-255.81	748.49	-199.32	-152	49.003	-25.144	-564.94	201.03	17.363	-305.39	32.148	-43.078	-183.39	681.46	-131.37	-242.83	253.6	-113.44	-246.34	71.489	-1.0788	-95.888	24.202	-32.365
290	1.45	-365.62	1500.1	-78.609	-390.58	1365.4	-9.8678	-417.67	1095.1	-23.896	-405.15	1263.1	119.95	-434.41	904.92	-74.49	-450.58	909.75	24.403	-214.83	349.09	-51.65	-186.05	747.93	267.64	-172.18	35.568	-82.517	-244.98	455.91	-136.9	-191.87	1499.5	-65.695	-172.86	793.26	223.57	-237	659.08	-172.34	-336.25	1145.9	-266.19	-360.17	1508	44.543	-335.3	964.26	173.63	-413.57	1002.8	-214.45	-280.92	1147.3	212.85	-275.22	877.74	257.81	-265.55	1287.6	-12.651	-311.05	554.37	174.12	-306.72	1304.5	138.18	-318.52	1310.2	-176.7	-239.92	771.64	248.06	-242.11	658.01	166.91	-348.01	788.6	-319.41	-304.64	745.55	-334.56	-182.78	1508.6	10.797	-335.18	335.64	92.263	-368.17	907.18	-309.96	-292.28	1003.9	250.56	-444.55	313.8	140.97	-624.11	235.73	48.492	-316.1	649.16	185.66	-413.72	284.43	81.625	-525.8	54.906	73.109	-482.52	226.17	66.369	-531.11	107.09	52.748	-293.49	455.93	173.16	-319.62	737.93	200.35	-570.26	117.07	94.52	-384.72	1031.8	-282.48	-223.27	257.67	-45.901	-580.31	206.19	92.072	-201.22	1183.8	-23.256	-227.37	868.24	-167.96	-218.03	166.8	-36.048	-282.82	781.95	-285.24	-227.84	568.17	-147.21	-234.98	881.32	123.4	-259.12	65.78	-80.618	-251.2	748.56	-199.81	-151.95	48.902	-25.125	-551.76	200.91	17.846	-305.39	32.18	-43.106	-179.84	680.83	-131.35	-241.91	253.47	-113.68	-246.13	71.508	-0.98528	-95.811	24.174	-32.423
291	1.455	-359.38	1500.5	-78.542	-384.36	1365.8	-9.9679	-411.99	1095.9	-24.38	-399.59	1263.4	119.44	-429.02	905.91	-74.872	-445.06	910.61	24.427	-213.56	348.87	-52.049	-183.5	747.46	268.27	-172.17	35.511	-82.558	-243.63	456.08	-137.18	-185.97	1500.3	-65.535	-170.49	792.97	224.17	-233.42	659.11	-172.45	-329.7	1146.6	-266.65	-354.54	1508.4	44.695	-331.43	964.55	173.83	-407.55	1003.3	-215.61	-276.3	1147.4	213	-272.34	877.97	258.02	-259.88	1288	-12.381	-301.69	554.71	173.51	-301.24	1304.7	138.34	-312.2	1310.7	-176.83	-237.35	771.65	248.43	-233.97	659.22	167.38	-340.99	789.18	-319.62	-297.48	746.35	-334.62	-177.01	1509.5	10.905	-323.58	336.58	92.287	-361.39	907.58	-310.47	-288.3	1004.2	251.17	-432.08	314.48	141.19	-611.8	234.53	48.3	-308	649.72	185.45	-401.28	284.98	82.027	-509.87	56.2	77.891	-469.57	226.25	66.93	-515.98	107.87	55.9	-281.9	457.1	173.2	-312.33	738.08	200.17	-555.69	118.37	97.302	-377.93	1032.2	-283.3	-222.32	257.61	-46.184	-566.7	206.21	93.384	-195.54	1184.1	-23.461	-222.12	868.08	-168.2	-217.33	166.66	-36.208	-275.65	782.83	-285.88	-225.22	568.02	-147.32	-229.51	882.17	123.47	-259.06	65.801	-80.647	-246.86	748.49	-199.86	-151.9	48.85	-25.092	-538.46	200.48	18.398	-305.4	32.18	-43.095	-176.26	680.19	-131.23	-241.17	253.25	-113.87	-246.02	71.447	-1.0402	-95.771	23.997	-32.302
